<svg viewBox="0, 0, 512, 512"
     xmlns="http://www.w3.org/2000/svg"
>
  <path d="M80,426.859 L80,314.859 C80,300.149 68.053,288.192 53.333,288.192 C38.613,288.192 26.667,300.149 26.667,314.859 L26.667,432.192 C26.667,458.709 48.16,480.192 74.667,480.192 L202.667,480.192 C217.387,480.192 229.333,468.245 229.333,453.525 C229.333,438.816 217.387,426.859 202.667,426.859 z M432,426.859 L309.333,426.859 C294.613,426.859 282.667,438.816 282.667,453.525 C282.667,468.245 294.613,480.192 309.333,480.192 L437.333,480.192 C463.84,480.192 485.333,458.709 485.333,432.192 C485.333,393.312 485.333,314.859 485.333,314.859 C485.333,300.149 473.387,288.192 458.667,288.192 C443.947,288.192 432,300.149 432,314.859 z M80,74.859 L202.667,74.859 C217.387,74.859 229.333,62.912 229.333,48.192 C229.333,33.483 217.387,21.525 202.667,21.525 L74.667,21.525 C48.16,21.525 26.667,43.019 26.667,69.525 L26.667,186.859 C26.667,201.579 38.613,213.525 53.333,213.525 C68.053,213.525 80,201.579 80,186.859 z M432,74.859 L432,186.859 C432,201.579 443.947,213.525 458.667,213.525 C473.387,213.525 485.333,201.579 485.333,186.859 C485.333,186.859 485.333,108.416 485.333,69.525 C485.333,43.019 463.84,21.525 437.333,21.525 L309.333,21.525 C294.613,21.525 282.667,33.483 282.667,48.192 C282.667,62.912 294.613,74.859 309.333,74.859 z"/>
</svg>
